<?xml version="1.0" standalone="no"?><!DOCTYPE svg PUBLIC "-//W3C//DTD SVG 1.1//EN" "http://www.w3.org/Graphics/SVG/1.1/DTD/svg11.dtd"><svg t="1684685697320" class="icon" viewBox="0 0 1024 1024" version="1.1" xmlns="http://www.w3.org/2000/svg" p-id="5386" data-spm-anchor-id="a313x.7781069.0.i1" xmlns:xlink="http://www.w3.org/1999/xlink" width="200" height="200"><path d="M512 960c-54.5 0-108.3-16.7-155.5-48.3-9.8-6.5-12.4-19.8-5.9-29.6s19.8-12.4 29.6-5.9c40.2 26.9 85.8 41.1 131.9 41.1 45.8 0 91.1-14 131.2-40.6 9.8-6.5 23.1-3.8 29.6 6s3.8 23.1-6 29.6C619.7 943.5 566.2 960 512 960zM255.6 783.3c-7.9 0-15.4-4.4-19.2-11.9-29-58.9-44.4-126.5-44.4-195.4 0-8.4 0.2-16.9 0.7-25.2 0.6-11.8 10.7-20.8 22.5-20.2 11.8 0.6 20.8 10.7 20.2 22.5-0.4 7.6-0.6 15.3-0.6 22.9 0 62.4 13.8 123.5 40 176.6 5.2 10.6 0.9 23.4-9.7 28.6-3.1 1.4-6.4 2.1-9.5 2.1z m514.1-2.5c-3.1 0-6.3-0.7-9.3-2.1-10.6-5.1-15.1-17.9-9.9-28.5 0.5-1 1-2 1.5-3.1 24.4-51.7 37.4-110.9 37.4-171.1 0-6.2-0.1-12.4-0.4-18.5-0.1-1.6-0.2-3.2-0.2-4.9-0.6-11.8 8.4-21.8 20.1-22.5 11.8-0.6 21.8 8.4 22.5 20.1 0.1 1.8 0.2 3.6 0.3 5.3 0.3 6.8 0.4 13.6 0.4 20.4 0 66.4-14.3 131.9-41.4 189.3-0.5 1.1-1.1 2.3-1.6 3.4-3.9 7.7-11.5 12.2-19.4 12.2zM244.9 434.9c-2.7 0-5.5-0.5-8.1-1.6-10.9-4.5-16.1-17-11.6-27.9 31.8-77 85-139.7 149.7-176.5 10.2-5.8 23.3-2.3 29.1 8 5.8 10.2 2.3 23.3-8 29.1-56.5 32.1-103.1 87.5-131.3 155.8-3.5 8.2-11.4 13.1-19.8 13.1z m534-0.6c-8.4 0-16.3-5-19.7-13.2-46.6-112.3-139-183.7-241.2-186.4-11.8-0.3-21.1-10.1-20.8-21.9s10.1-21.1 21.9-20.8c59.7 1.6 117.5 22.9 167.3 61.8 47.9 37.4 86.7 89.6 112.1 150.9 4.5 10.9-0.6 23.4-11.5 27.9-2.6 1.2-5.4 1.7-8.1 1.7z" fill="#d4237a" p-id="5387" data-spm-anchor-id="a313x.7781069.0.i9" class=""></path><path d="M387.1 263.2c-1.5 0-3-0.2-4.5-0.5-11.5-2.5-18.9-13.8-16.4-25.3l1.6-7.1 1.1-4.2c11.2-45.5 37.7-86.6 74.5-115.9C481.4 80 527.3 64 576 64c11.8 0 21.3 9.6 21.3 21.3s-9.6 21.3-21.3 21.3c-39 0-75.6 12.8-106.1 37-29.5 23.5-50.7 56.4-59.7 92.9l-0.1 0.4-1 3.9-1.2 5.6c-2.1 10-11 16.8-20.8 16.8z" fill="#d4237a" p-id="5388"></path><path d="M557.1 379.7c-6.1 0-12.1-2.6-16.3-7.6-32.3-38.4-50.2-87.2-50.2-137.4 0-60.5 25.8-118.4 70.9-158.8 8.8-7.9 22.3-7.1 30.1 1.6 7.9 8.8 7.1 22.3-1.6 30.1-36.1 32.4-56.7 78.7-56.7 127.1 0 40.2 14.2 79.2 40.1 109.9 7.6 9 6.4 22.5-2.6 30.1-3.9 3.3-8.8 5-13.7 5z" fill="#d4237a" p-id="5389"></path><path d="M341.3 917.3c-62.7 0-121.6-24.4-165.9-68.7-44.3-44.3-68.7-103.3-68.7-165.9 0-11.8 9.6-21.3 21.3-21.3s21.3 9.6 21.3 21.3c0 105.9 86.1 192 192 192 7.9 0 15.9-0.5 23.7-1.5 11.7-1.4 22.3 6.9 23.8 18.6 1.4 11.7-6.9 22.3-18.6 23.8-9.4 1.1-19.2 1.7-28.9 1.7z" fill="#d4237a" p-id="5390"></path><path d="M682.7 917.3c-7.6 0-15.3-0.4-22.8-1.1-11.7-1.1-20.3-11.6-19.2-23.3 1.1-11.7 11.6-20.3 23.3-19.2 6.2 0.6 12.5 0.9 18.7 0.9 105.9 0 192-86.1 192-192 0-11.8 9.6-21.3 21.3-21.3s21.3 9.6 21.3 21.3c0 62.7-24.4 121.6-68.7 165.9-44.3 44.4-103.3 68.8-165.9 68.8z" fill="#d4237a" p-id="5391"></path><path d="M771.1 784.4c-9.8 0-18.6-6.8-20.8-16.8-2.5-11.5 4.8-22.9 16.3-25.4 44.8-9.8 84.7-35.5 112.4-72.4 7.1-9.4 20.4-11.3 29.9-4.2 9.4 7.1 11.3 20.5 4.2 29.9-33.8 45-82.6 76.4-137.4 88.4-1.6 0.4-3.1 0.5-4.6 0.5z" fill="#d4237a" p-id="5392"></path><path d="M250.8 783.9c-1.6 0-3.2-0.2-4.8-0.5-53-12.2-100.5-42.7-133.8-86.1-7.2-9.4-5.4-22.7 4-29.9 9.4-7.2 22.7-5.4 29.9 4 27.2 35.5 66.1 60.6 109.4 70.5 11.5 2.6 18.7 14.1 16 25.6-2.2 9.8-11 16.4-20.7 16.4z" fill="#d4237a" p-id="5393"></path><path d="M211.2 571.6c-5.7 0-11.3-2.3-15.5-6.7-29.9-31.8-46.3-73.3-46.3-116.9 0-40.9 14.7-80.5 41.4-111.4l0.7-0.8 8.1-8.5c8.1-8.5 21.6-8.9 30.2-0.8 8.5 8.1 8.9 21.6 0.8 30.2l-7.7 8.1C202.9 388 192 417.5 192 448c0 32.7 12.3 63.8 34.7 87.7 8.1 8.6 7.7 22.1-0.9 30.2-4.1 3.8-9.4 5.7-14.6 5.7z" fill="#d4237a" p-id="5394"></path><path d="M243.4 431.1c-6.5 0-12.9-2.9-17.1-8.5-17.1-22.7-28.3-49.5-32.5-77.5-1.7-11.7 6.3-22.5 18-24.2 11.7-1.7 22.5 6.3 24.2 18 3.1 21 11.5 41.1 24.3 58.1 7.1 9.4 5.2 22.8-4.2 29.9-3.8 2.8-8.3 4.2-12.7 4.2z" fill="#d4237a" p-id="5395"></path><path d="M816.9 567.1c-5 0-9.9-1.7-14-5.2-8.9-7.7-9.9-21.2-2.1-30.1 20.1-23.2 31.2-53 31.2-83.8 0-35-13.8-67.6-38.9-91.9-8.5-8.2-8.7-21.7-0.5-30.2s21.7-8.7 30.2-0.5c33.5 32.4 51.9 76 51.9 122.6 0 41.1-14.8 80.8-41.7 111.7-4.2 4.9-10.2 7.4-16.1 7.4z" fill="#d4237a" p-id="5396"></path><path d="M781.5 430c-4.4 0-8.8-1.4-12.7-4.2-9.5-7-11.5-20.4-4.5-29.8 12.1-16.4 20.1-35.6 23.3-55.6 1.9-11.6 12.8-19.6 24.4-17.7 11.6 1.9 19.6 12.8 17.7 24.4-4.3 26.7-15 52.3-31.2 74.2-4 5.7-10.4 8.7-17 8.7z" fill="#d4237a" p-id="5397"></path><path d="M341 799.2c-7.9 0-15.4-4.4-19.1-11.9-11.7-23.6-17.6-49-17.6-75.5 0-94.1 76.6-170.7 170.7-170.7 11.8 0 21.3 9.6 21.3 21.3s-9.6 21.3-21.3 21.3c-70.6 0-128 57.4-128 128 0 19.9 4.4 38.9 13.2 56.6 5.2 10.6 0.9 23.4-9.7 28.6-3.1 1.6-6.3 2.3-9.5 2.3z" fill="#d4237a" p-id="5398" data-spm-anchor-id="a313x.7781069.0.i5" class=""></path><path d="M579.5 795c-1.4 0-2.9-0.1-4.4-0.4-47.6-9.9-88.9-39.7-113.2-81.8-28-48.4-30.4-107.6-6.5-158.2 5-10.7 17.7-15.2 28.4-10.2s15.2 17.7 10.2 28.4c-17.9 38-16.1 82.4 4.9 118.7 18.2 31.6 49.2 53.9 84.9 61.3 11.5 2.4 19 13.7 16.6 25.2-2.2 10-11 17-20.9 17z" fill="#d4237a" p-id="5399" data-spm-anchor-id="a313x.7781069.0.i4" class=""></path><path d="M721.4 644.5c-1.1 0-2.2-0.1-3.4-0.3-11.6-1.8-19.6-12.8-17.7-24.4 5.7-36.3-0.1-72.6-17-105.1-16.5-31.9-42.1-57.3-73.9-73.6-10.5-5.4-14.7-18.2-9.3-28.7 5.4-10.5 18.2-14.7 28.7-9.3 39.8 20.3 71.7 52.1 92.3 91.9 21.1 40.6 28.4 86.1 21.2 131.4-1.5 10.7-10.6 18.1-20.9 18.1z" fill="#d4237a" p-id="5400" data-spm-anchor-id="a313x.7781069.0.i3" class=""></path><path d="M553.3 608.6c-6 0-11.9-2.5-16.2-7.4-7.7-8.9-6.7-22.4 2.2-30.1 30.5-26.3 50.7-62.7 57-102.5 2.1-13 2.6-26.3 1.7-39.3-0.9-11.8 8-22 19.7-22.8 11.8-0.9 22 8 22.8 19.7 1.2 16.3 0.5 32.8-2.1 49.1-7.9 49.7-33.2 95.2-71.3 128.1-3.9 3.5-8.9 5.2-13.8 5.2z" fill="#d4237a" p-id="5401" data-spm-anchor-id="a313x.7781069.0.i2" class=""></path></svg>